<?xml version="1.0" encoding="UTF-8"?>
<svg xmlns="http://www.w3.org/2000/svg" xmlns:xlink="http://www.w3.org/1999/xlink" width="64px" height="64px" viewBox="0 0 32 32" version="1.1">
<g id="surface1">
<path style=" stroke:none;fill-rule:nonzero;fill:rgb(64.705882%,88.235294%,98.431373%);fill-opacity:1;" d="M 28.351562 10.496094 C 23.828125 5.972656 16.488281 5.972656 11.964844 10.496094 C 7.4375 15.023438 7.4375 22.359375 11.964844 26.886719 C 16.488281 31.410156 23.828125 31.410156 28.351562 26.886719 C 32.878906 22.359375 32.878906 15.023438 28.351562 10.496094 Z M 28.351562 10.496094 "/>
<path style=" stroke:none;fill-rule:nonzero;fill:rgb(47.843137%,82.352941%,98.039216%);fill-opacity:1;" d="M 30.695312 23.519531 C 28.03125 29.335938 21.148438 31.894531 15.332031 29.230469 C 13.015625 28.164062 11.214844 26.433594 10.054688 24.371094 C 10.902344 25.121094 11.871094 25.765625 12.953125 26.261719 C 18.769531 28.925781 25.652344 26.367188 28.316406 20.550781 C 29.917969 17.050781 29.632812 13.167969 27.882812 10.046875 C 31.578125 13.347656 32.863281 18.785156 30.695312 23.519531 Z M 30.695312 23.519531 "/>
<path style=" stroke:none;fill-rule:nonzero;fill:rgb(83.137255%,94.117647%,98.823529%);fill-opacity:1;" d="M 30.261719 13.015625 C 29.417969 12.265625 28.445312 11.621094 27.363281 11.125 C 21.546875 8.460938 14.667969 11.015625 12 16.835938 C 10.402344 20.335938 10.6875 24.214844 12.433594 27.335938 C 8.742188 24.039062 7.453125 18.601562 9.621094 13.867188 C 12.289062 8.046875 19.167969 5.492188 24.984375 8.15625 C 27.300781 9.21875 29.105469 10.949219 30.261719 13.015625 Z M 30.261719 13.015625 "/>
<path style=" stroke:none;fill-rule:nonzero;fill:rgb(48.235294%,87.058824%,61.960784%);fill-opacity:1;" d="M 20.964844 19.226562 C 21.78125 18.394531 23.285156 18.332031 24.175781 19.128906 C 24.582031 19.484375 24.851562 19.996094 25.277344 20.355469 C 25.699219 20.71875 26.382812 20.894531 26.792969 20.539062 C 27.207031 20.148438 27.074219 19.4375 26.804688 18.925781 C 26.539062 18.417969 26.175781 17.898438 26.230469 17.324219 C 26.300781 16.558594 27.195312 16.070312 27.957031 16.207031 C 28.703125 16.339844 29.292969 16.9375 29.691406 17.613281 C 30.078125 18.265625 30.316406 19.007812 30.644531 19.695312 C 30.863281 20.125 31.160156 20.558594 31.5625 20.78125 C 31.492188 21.148438 31.402344 21.523438 31.296875 21.894531 C 30.632812 24.207031 29.316406 26.148438 27.597656 27.574219 C 27.253906 27.277344 26.957031 26.871094 26.714844 26.523438 C 26.328125 25.996094 26.019531 25.398438 25.792969 24.785156 C 25.636719 24.328125 25.515625 23.863281 25.25 23.445312 C 24.710938 22.609375 23.542969 22.222656 22.617188 22.597656 C 22.320312 22.699219 22.035156 22.894531 21.71875 22.882812 C 21.40625 22.871094 21.125 22.683594 20.90625 22.441406 C 20.113281 21.570312 20.128906 20.074219 20.964844 19.226562 Z M 20.964844 19.226562 "/>
<path style=" stroke:none;fill-rule:nonzero;fill:rgb(31.764706%,82.352941%,49.803922%);fill-opacity:1;" d="M 31.5625 20.78125 C 31.492188 21.152344 31.402344 21.523438 31.296875 21.894531 C 30.632812 24.207031 29.316406 26.148438 27.597656 27.574219 C 27.25 27.277344 26.953125 26.867188 26.714844 26.523438 C 26.328125 25.996094 26.019531 25.398438 25.792969 24.785156 C 25.734375 24.609375 25.679688 24.4375 25.621094 24.265625 C 26.726562 23.25 27.652344 22 28.316406 20.550781 C 28.839844 19.410156 29.160156 18.230469 29.292969 17.050781 C 29.441406 17.226562 29.574219 17.417969 29.691406 17.613281 C 30.078125 18.265625 30.316406 19.007812 30.644531 19.691406 C 30.867188 20.125 31.160156 20.558594 31.5625 20.78125 Z M 31.5625 20.78125 "/>
<path style=" stroke:none;fill-rule:nonzero;fill:rgb(48.235294%,87.058824%,61.960784%);fill-opacity:1;" d="M 9.535156 23.328125 C 9.683594 23.292969 9.832031 23.238281 9.96875 23.167969 C 10.496094 22.910156 10.875 22.429688 11.238281 21.964844 C 11.59375 21.503906 11.980469 21.023438 12.511719 20.777344 C 13.042969 20.527344 13.773438 20.59375 14.109375 21.074219 C 14.675781 21.890625 13.777344 23.105469 14.265625 23.964844 C 14.976562 24.238281 15.753906 23.230469 16.429688 23.574219 C 16.832031 23.785156 16.882812 24.34375 16.839844 24.796875 C 16.789062 25.25 16.722656 25.773438 17.03125 26.109375 C 17.351562 26.464844 17.929688 26.421875 18.367188 26.226562 C 18.804688 26.027344 19.1875 25.714844 19.652344 25.589844 C 20.425781 25.378906 21.285156 25.769531 21.761719 26.417969 C 22.242188 27.0625 22.390625 27.910156 22.324219 28.710938 C 22.289062 29.152344 22.21875 29.628906 22.105469 30.113281 C 22.03125 30.128906 21.960938 30.140625 21.886719 30.152344 C 16.582031 30.953125 11.582031 28.023438 9.535156 23.328125 Z M 9.535156 23.328125 "/>
<path style=" stroke:none;fill-rule:nonzero;fill:rgb(65.490196%,91.764706%,74.901961%);fill-opacity:1;" d="M 12.429688 27.324219 C 11.207031 26.234375 10.210938 24.875 9.535156 23.328125 C 9.683594 23.292969 9.832031 23.238281 9.96875 23.167969 C 10.367188 22.972656 10.679688 22.648438 10.96875 22.300781 C 11.066406 24.070312 11.570312 25.789062 12.429688 27.324219 Z M 12.429688 27.324219 "/>
<path style=" stroke:none;fill-rule:nonzero;fill:rgb(98.823529%,69.019608%,69.019608%);fill-opacity:1;" d="M 12.429688 27.324219 C 12.394531 27.296875 12.363281 27.265625 12.328125 27.234375 C 12.363281 27.265625 12.394531 27.296875 12.425781 27.320312 C 12.425781 27.324219 12.429688 27.324219 12.429688 27.324219 Z M 12.429688 27.324219 "/>
<path style=" stroke:none;fill-rule:nonzero;fill:rgb(31.764706%,82.352941%,49.803922%);fill-opacity:1;" d="M 22.324219 28.710938 C 22.289062 29.152344 22.21875 29.632812 22.105469 30.117188 C 22.03125 30.128906 21.960938 30.140625 21.890625 30.152344 C 18.332031 30.6875 14.914062 29.550781 12.429688 27.324219 C 12.429688 27.324219 12.425781 27.324219 12.425781 27.320312 C 12.109375 26.75 11.839844 26.152344 11.621094 25.539062 C 12.042969 25.804688 12.488281 26.046875 12.953125 26.261719 C 15.878906 27.601562 19.074219 27.621094 21.867188 26.566406 C 22.265625 27.191406 22.386719 27.96875 22.324219 28.710938 Z M 22.324219 28.710938 "/>
<path style=" stroke:none;fill-rule:nonzero;fill:rgb(48.235294%,87.058824%,61.960784%);fill-opacity:1;" d="M 8.617188 17.664062 C 9 13.332031 11.824219 9.453125 16.050781 7.859375 C 16.019531 8.007812 15.996094 8.160156 15.984375 8.308594 C 15.902344 9.429688 16.527344 10.578125 17.523438 11.105469 C 17.742188 11.222656 17.980469 11.3125 18.1875 11.453125 C 18.78125 11.855469 19.054688 12.683594 18.8125 13.359375 C 18.5625 14.035156 17.828125 14.5 17.113281 14.421875 C 16.613281 14.375 16.167969 14.097656 15.703125 13.910156 C 15.238281 13.722656 14.664062 13.632812 14.265625 13.933594 C 13.890625 14.210938 13.78125 14.734375 13.832031 15.191406 C 13.886719 15.652344 14.070312 16.089844 14.160156 16.542969 C 14.246094 17 14.226562 17.511719 13.925781 17.867188 C 13.605469 18.246094 13.046875 18.339844 12.558594 18.257812 C 12.070312 18.175781 11.617188 17.953125 11.140625 17.800781 C 10.496094 17.589844 9.800781 17.523438 9.125 17.585938 C 8.953125 17.605469 8.78125 17.628906 8.617188 17.664062 Z M 8.617188 17.664062 "/>
<path style=" stroke:none;fill-rule:nonzero;fill:rgb(65.490196%,91.764706%,74.901961%);fill-opacity:1;" d="M 17.632812 11.164062 C 15.226562 12.285156 13.195312 14.234375 12.003906 16.835938 C 11.832031 17.203125 11.6875 17.574219 11.5625 17.949219 C 11.421875 17.898438 11.285156 17.84375 11.140625 17.800781 C 10.496094 17.589844 9.800781 17.523438 9.125 17.589844 C 8.953125 17.605469 8.78125 17.628906 8.617188 17.664062 C 9 13.332031 11.828125 9.453125 16.050781 7.859375 C 16.019531 8.007812 15.996094 8.160156 15.984375 8.308594 C 15.902344 9.429688 16.527344 10.578125 17.523438 11.105469 C 17.558594 11.125 17.597656 11.144531 17.632812 11.164062 Z M 17.632812 11.164062 "/>
<path style=" stroke:none;fill-rule:nonzero;fill:rgb(98.823529%,54.117647%,54.117647%);fill-opacity:1;" d="M 28.875 5.113281 C 28.875 8.46875 24.011719 14.617188 24.011719 14.617188 C 24.011719 14.617188 19.148438 8.46875 19.148438 5.113281 C 19.148438 2.425781 21.328125 0.25 24.011719 0.25 C 26.699219 0.25 28.875 2.425781 28.875 5.113281 Z M 28.875 5.113281 "/>
<path style=" stroke:none;fill-rule:nonzero;fill:rgb(98.823529%,69.019608%,69.019608%);fill-opacity:1;" d="M 24.160156 2.277344 C 24.160156 4.410156 22.203125 7.65625 20.773438 9.753906 C 19.878906 8.136719 19.148438 6.414062 19.148438 5.113281 C 19.148438 2.523438 21.171875 0.410156 23.71875 0.257812 C 24.003906 0.875 24.160156 1.558594 24.160156 2.277344 Z M 24.160156 2.277344 "/>
<path style=" stroke:none;fill-rule:nonzero;fill:rgb(97.647059%,38.823529%,39.215686%);fill-opacity:1;" d="M 28.875 5.113281 C 28.875 8.46875 24.011719 14.617188 24.011719 14.617188 C 24.011719 14.617188 23.5 13.972656 22.8125 12.988281 C 23.890625 11.554688 27.359375 6.726562 27.359375 3.894531 C 27.359375 2.710938 26.941406 1.632812 26.242188 0.792969 C 27.804688 1.597656 28.875 3.230469 28.875 5.113281 Z M 28.875 5.113281 "/>
<path style=" stroke:none;fill-rule:nonzero;fill:rgb(100%,100%,100%);fill-opacity:1;" d="M 27.140625 5.113281 C 27.140625 6.839844 25.742188 8.242188 24.011719 8.242188 C 22.285156 8.242188 20.882812 6.839844 20.882812 5.113281 C 20.882812 3.382812 22.285156 1.984375 24.011719 1.984375 C 25.742188 1.984375 27.140625 3.382812 27.140625 5.113281 Z M 27.140625 5.113281 "/>
<path style=" stroke:none;fill-rule:nonzero;fill:rgb(92.941176%,92.941176%,92.941176%);fill-opacity:1;" d="M 27.140625 5.113281 C 27.140625 6.839844 25.742188 8.242188 24.011719 8.242188 C 22.652344 8.242188 21.492188 7.371094 21.0625 6.15625 C 21.5625 6.492188 22.164062 6.691406 22.8125 6.691406 C 24.539062 6.691406 25.941406 5.289062 25.941406 3.558594 C 25.941406 3.191406 25.878906 2.84375 25.761719 2.519531 C 26.59375 3.082031 27.140625 4.03125 27.140625 5.113281 Z M 27.140625 5.113281 "/>
<path style=" stroke:none;fill-rule:nonzero;fill:rgb(20%,20%,20%);fill-opacity:1;" d="M 24.011719 8.492188 C 22.148438 8.492188 20.632812 6.976562 20.632812 5.113281 C 20.632812 3.25 22.148438 1.734375 24.011719 1.734375 C 25.875 1.734375 27.390625 3.25 27.390625 5.113281 C 27.390625 6.976562 25.875 8.492188 24.011719 8.492188 Z M 24.011719 2.234375 C 22.425781 2.234375 21.132812 3.523438 21.132812 5.113281 C 21.132812 6.699219 22.425781 7.992188 24.011719 7.992188 C 25.601562 7.992188 26.890625 6.699219 26.890625 5.113281 C 26.890625 3.523438 25.601562 2.234375 24.011719 2.234375 Z M 24.011719 2.234375 "/>
<path style=" stroke:none;fill-rule:nonzero;fill:rgb(99.607843%,86.666667%,55.686275%);fill-opacity:1;" d="M 14.789062 31.75 L 1.140625 31.75 C 0.597656 31.75 0.183594 31.269531 0.261719 30.734375 L 2.09375 18.054688 C 2.15625 17.613281 2.53125 17.292969 2.976562 17.292969 L 12.957031 17.292969 C 13.398438 17.292969 13.773438 17.613281 13.835938 18.054688 L 15.667969 30.734375 C 15.746094 31.269531 15.328125 31.75 14.789062 31.75 Z M 14.789062 31.75 "/>
<path style=" stroke:none;fill-rule:nonzero;fill:rgb(99.607843%,91.372549%,70.588235%);fill-opacity:1;" d="M 4.167969 17.289062 C 3.722656 17.289062 3.347656 17.613281 3.28125 18.054688 L 1.449219 30.734375 C 1.375 31.269531 1.789062 31.75 2.332031 31.75 L 1.140625 31.75 C 0.597656 31.75 0.183594 31.269531 0.261719 30.734375 L 2.09375 18.054688 C 2.15625 17.613281 2.53125 17.289062 2.976562 17.289062 Z M 4.167969 17.289062 "/>
<path style=" stroke:none;fill-rule:nonzero;fill:rgb(99.215686%,82.745098%,40.392157%);fill-opacity:1;" d="M 11.761719 17.289062 C 12.207031 17.289062 12.578125 17.613281 12.644531 18.054688 L 14.476562 30.734375 C 14.554688 31.269531 14.136719 31.75 13.597656 31.75 L 14.789062 31.75 C 15.328125 31.75 15.742188 31.269531 15.667969 30.734375 L 13.835938 18.054688 C 13.769531 17.613281 13.398438 17.289062 12.953125 17.289062 Z M 11.761719 17.289062 "/>
<path style=" stroke:none;fill-rule:nonzero;fill:rgb(99.215686%,82.745098%,40.392157%);fill-opacity:1;" d="M 3.539062 19.402344 C 3.539062 18.8125 4.019531 18.335938 4.605469 18.335938 C 5.195312 18.335938 5.675781 18.8125 5.675781 19.402344 C 5.675781 19.992188 5.195312 20.46875 4.605469 20.46875 C 4.019531 20.46875 3.539062 19.992188 3.539062 19.402344 Z M 3.539062 19.402344 "/>
<path style=" stroke:none;fill-rule:nonzero;fill:rgb(99.215686%,82.745098%,40.392157%);fill-opacity:1;" d="M 10.25 19.402344 C 10.25 18.8125 10.730469 18.335938 11.316406 18.335938 C 11.90625 18.335938 12.386719 18.8125 12.386719 19.402344 C 12.386719 19.992188 11.90625 20.46875 11.316406 20.46875 C 10.730469 20.46875 10.25 19.992188 10.25 19.402344 Z M 10.25 19.402344 "/>
<path style=" stroke:none;fill-rule:nonzero;fill:rgb(100%,100%,100%);fill-opacity:1;" d="M 11.808594 16.355469 L 11.808594 19.324219 C 11.808594 19.597656 11.589844 19.8125 11.320312 19.8125 C 11.046875 19.8125 10.828125 19.597656 10.828125 19.324219 L 10.828125 16.355469 C 10.828125 15.589844 10.53125 14.871094 9.988281 14.332031 C 9.449219 13.789062 8.730469 13.488281 7.964844 13.488281 C 6.382812 13.488281 5.101562 14.777344 5.101562 16.355469 L 5.101562 19.324219 C 5.101562 19.597656 4.878906 19.8125 4.609375 19.8125 C 4.339844 19.8125 4.117188 19.597656 4.117188 19.324219 L 4.117188 16.355469 C 4.117188 14.234375 5.84375 12.507812 7.964844 12.507812 C 8.992188 12.507812 9.957031 12.90625 10.683594 13.636719 C 11.410156 14.359375 11.808594 15.324219 11.808594 16.355469 Z M 11.808594 16.355469 "/>
<path style=" stroke:none;fill-rule:nonzero;fill:rgb(20%,20%,20%);fill-opacity:1;" d="M 27.652344 9.539062 C 28.476562 7.988281 29.125 6.375 29.125 5.113281 C 29.125 2.292969 26.832031 0 24.011719 0 C 21.195312 0 18.898438 2.292969 18.898438 5.113281 C 18.898438 5.652344 19.019531 6.253906 19.21875 6.890625 C 17.085938 7.058594 15.027344 7.800781 13.246094 9.082031 C 11.867188 10.074219 10.742188 11.324219 9.914062 12.753906 C 9.324219 12.429688 8.65625 12.257812 7.964844 12.257812 C 5.707031 12.257812 3.871094 14.097656 3.871094 16.355469 L 3.871094 17.042969 L 2.976562 17.042969 C 2.402344 17.042969 1.929688 17.453125 1.84375 18.015625 L 0.0117188 30.699219 C -0.0351562 31.027344 0.0625 31.359375 0.28125 31.609375 C 0.496094 31.855469 0.808594 32 1.140625 32 L 14.789062 32 C 15.121094 32 15.433594 31.855469 15.652344 31.605469 C 15.867188 31.351562 15.964844 31.023438 15.914062 30.695312 L 15.769531 29.6875 C 16.558594 30.003906 17.390625 30.238281 18.25 30.378906 C 18.894531 30.484375 19.542969 30.535156 20.183594 30.535156 C 22.640625 30.535156 25.035156 29.769531 27.070312 28.304688 C 29.636719 26.457031 31.332031 23.722656 31.84375 20.601562 C 32.546875 16.289062 30.8125 12.132812 27.652344 9.539062 Z M 24.011719 0.5 C 26.554688 0.5 28.625 2.570312 28.625 5.113281 C 28.625 7.964844 24.914062 13.019531 24.011719 14.210938 C 23.109375 13.019531 19.398438 7.964844 19.398438 5.113281 C 19.398438 2.570312 21.46875 0.5 24.011719 0.5 Z M 15.742188 8.257812 C 15.738281 8.265625 15.738281 8.277344 15.738281 8.289062 C 15.644531 9.507812 16.332031 10.757812 17.40625 11.328125 C 17.488281 11.371094 17.570312 11.410156 17.65625 11.449219 C 17.796875 11.519531 17.929688 11.582031 18.050781 11.660156 C 18.546875 11.996094 18.78125 12.707031 18.578125 13.273438 C 18.367188 13.84375 17.738281 14.238281 17.136719 14.175781 C 16.816406 14.144531 16.511719 14 16.1875 13.851562 C 16.058594 13.789062 15.929688 13.730469 15.796875 13.675781 C 15.40625 13.519531 14.667969 13.320312 14.117188 13.734375 C 13.714844 14.027344 13.515625 14.585938 13.585938 15.222656 C 13.617188 15.507812 13.695312 15.78125 13.773438 16.042969 C 13.824219 16.230469 13.878906 16.410156 13.914062 16.59375 C 13.957031 16.8125 13.992188 17.183594 13.859375 17.496094 C 13.652344 17.21875 13.320312 17.042969 12.957031 17.042969 L 12.058594 17.042969 L 12.058594 16.355469 C 12.058594 15.257812 11.632812 14.230469 10.859375 13.460938 C 10.699219 13.300781 10.523438 13.15625 10.34375 13.027344 C 11.585938 10.882812 13.492188 9.210938 15.742188 8.257812 Z M 4.371094 16.355469 C 4.371094 14.371094 5.980469 12.757812 7.964844 12.757812 C 8.925781 12.757812 9.828125 13.132812 10.507812 13.816406 C 11.1875 14.488281 11.558594 15.390625 11.558594 16.355469 L 11.558594 19.324219 C 11.558594 19.457031 11.453125 19.5625 11.320312 19.5625 C 11.183594 19.5625 11.078125 19.457031 11.078125 19.324219 L 11.078125 16.355469 C 11.078125 15.519531 10.753906 14.738281 10.167969 14.152344 C 9.578125 13.566406 8.796875 13.238281 7.964844 13.238281 C 6.246094 13.238281 4.851562 14.636719 4.851562 16.355469 L 4.851562 19.324219 C 4.851562 19.457031 4.742188 19.5625 4.609375 19.5625 C 4.476562 19.5625 4.371094 19.457031 4.371094 19.324219 Z M 8.96875 16.863281 C 9.109375 15.996094 9.359375 15.171875 9.683594 14.390625 C 9.726562 14.429688 9.769531 14.464844 9.8125 14.507812 C 10.304688 15 10.578125 15.65625 10.578125 16.355469 L 10.578125 17.042969 L 8.945312 17.042969 C 8.953125 16.980469 8.957031 16.921875 8.96875 16.863281 Z M 8.472656 16.785156 C 8.460938 16.871094 8.449219 16.957031 8.4375 17.042969 L 5.351562 17.042969 L 5.351562 16.355469 C 5.351562 14.914062 6.523438 13.738281 7.964844 13.738281 C 8.425781 13.738281 8.871094 13.863281 9.261719 14.085938 C 8.898438 14.941406 8.628906 15.84375 8.472656 16.785156 Z M 15.273438 31.277344 C 15.152344 31.417969 14.972656 31.5 14.789062 31.5 L 1.140625 31.5 C 0.953125 31.5 0.78125 31.421875 0.660156 31.28125 C 0.535156 31.140625 0.480469 30.953125 0.507812 30.769531 L 2.339844 18.089844 C 2.386719 17.773438 2.652344 17.542969 2.976562 17.542969 L 3.871094 17.542969 L 3.871094 19.324219 C 3.871094 19.734375 4.203125 20.0625 4.609375 20.0625 C 5.019531 20.0625 5.351562 19.734375 5.351562 19.324219 L 5.351562 17.542969 L 10.578125 17.542969 L 10.578125 19.324219 C 10.578125 19.734375 10.910156 20.0625 11.320312 20.0625 C 11.726562 20.0625 12.058594 19.734375 12.058594 19.324219 L 12.058594 17.542969 L 12.957031 17.542969 C 13.273438 17.542969 13.542969 17.777344 13.585938 18.089844 L 15.417969 30.769531 C 15.445312 30.953125 15.394531 31.136719 15.273438 31.277344 Z M 22.074219 28.691406 C 22.042969 29.097656 21.976562 29.503906 21.890625 29.902344 C 20.726562 30.078125 19.527344 30.078125 18.332031 29.882812 C 17.398438 29.730469 16.515625 29.46875 15.683594 29.109375 L 14.972656 24.179688 C 15.136719 24.125 15.292969 24.050781 15.441406 23.980469 C 15.839844 23.792969 16.09375 23.683594 16.3125 23.796875 C 16.632812 23.960938 16.613281 24.535156 16.589844 24.769531 L 16.585938 24.8125 C 16.535156 25.285156 16.46875 25.871094 16.847656 26.277344 C 17.273438 26.75 17.988281 26.667969 18.46875 26.453125 C 18.648438 26.371094 18.816406 26.277344 18.976562 26.179688 C 19.226562 26.035156 19.464844 25.898438 19.71875 25.832031 C 20.347656 25.660156 21.121094 25.96875 21.5625 26.566406 C 21.960938 27.101562 22.144531 27.855469 22.074219 28.691406 Z M 27.609375 27.238281 C 27.359375 26.988281 27.128906 26.683594 26.917969 26.375 C 26.5625 25.894531 26.253906 25.316406 26.03125 24.707031 C 26.003906 24.625 25.976562 24.542969 25.949219 24.460938 C 25.824219 24.078125 25.695312 23.679688 25.460938 23.3125 C 24.847656 22.363281 23.558594 21.949219 22.535156 22.363281 C 22.4375 22.394531 22.339844 22.4375 22.242188 22.480469 C 22.0625 22.5625 21.882812 22.640625 21.726562 22.632812 C 21.464844 22.625 21.238281 22.433594 21.089844 22.273438 C 20.382812 21.492188 20.40625 20.152344 21.144531 19.402344 C 21.867188 18.664062 23.234375 18.621094 24.011719 19.316406 C 24.191406 19.476562 24.347656 19.671875 24.507812 19.878906 C 24.691406 20.109375 24.878906 20.34375 25.113281 20.546875 C 25.613281 20.976562 26.429688 21.1875 26.964844 20.71875 C 27.488281 20.226562 27.328125 19.382812 27.027344 18.808594 C 26.984375 18.722656 26.9375 18.640625 26.890625 18.554688 C 26.660156 18.140625 26.441406 17.75 26.480469 17.347656 C 26.5 17.105469 26.636719 16.882812 26.863281 16.710938 C 27.15625 16.488281 27.558594 16.386719 27.914062 16.453125 C 28.695312 16.59375 29.226562 17.320312 29.476562 17.742188 C 29.707031 18.132812 29.890625 18.574219 30.066406 18.996094 C 30.179688 19.261719 30.292969 19.535156 30.421875 19.808594 C 30.679688 20.3125 30.960938 20.671875 31.277344 20.898438 C 30.789062 23.378906 29.507812 25.589844 27.609375 27.238281 Z M 31.375 20.320312 C 31.199219 20.140625 31.027344 19.898438 30.871094 19.585938 C 30.75 19.332031 30.636719 19.0625 30.53125 18.804688 C 30.347656 18.363281 30.15625 17.90625 29.90625 17.488281 C 29.402344 16.632812 28.726562 16.089844 28 15.960938 C 27.507812 15.871094 26.96875 16.003906 26.5625 16.3125 C 26.222656 16.566406 26.015625 16.917969 25.980469 17.300781 C 25.929688 17.859375 26.207031 18.359375 26.453125 18.800781 C 26.496094 18.878906 26.542969 18.960938 26.585938 19.039062 C 26.820312 19.492188 26.921875 20.074219 26.628906 20.347656 C 26.328125 20.609375 25.777344 20.457031 25.4375 20.164062 C 25.238281 19.996094 25.074219 19.789062 24.902344 19.570312 C 24.730469 19.351562 24.554688 19.128906 24.339844 18.941406 C 23.363281 18.066406 21.703125 18.117188 20.789062 19.050781 C 19.871094 19.980469 19.839844 21.644531 20.722656 22.609375 C 21.023438 22.941406 21.367188 23.121094 21.710938 23.132812 C 21.988281 23.136719 22.230469 23.035156 22.445312 22.9375 C 22.527344 22.902344 22.613281 22.863281 22.710938 22.832031 C 23.515625 22.503906 24.5625 22.839844 25.039062 23.582031 C 25.238281 23.894531 25.351562 24.246094 25.476562 24.617188 C 25.503906 24.699219 25.527344 24.785156 25.558594 24.871094 C 25.804688 25.539062 26.125 26.144531 26.511719 26.664062 C 26.722656 26.976562 26.960938 27.289062 27.226562 27.558594 C 27.082031 27.675781 26.929688 27.789062 26.777344 27.898438 C 25.453125 28.851562 23.96875 29.492188 22.417969 29.808594 C 22.488281 29.453125 22.542969 29.09375 22.574219 28.730469 C 22.652344 27.777344 22.433594 26.902344 21.964844 26.269531 C 21.398438 25.5 20.421875 25.121094 19.585938 25.347656 C 19.269531 25.433594 18.992188 25.59375 18.726562 25.75 C 18.570312 25.839844 18.417969 25.929688 18.265625 25.996094 C 17.910156 26.15625 17.449219 26.199219 17.214844 25.9375 C 16.992188 25.695312 17.039062 25.273438 17.082031 24.867188 L 17.085938 24.820312 C 17.160156 24.09375 16.964844 23.570312 16.542969 23.351562 C 16.085938 23.121094 15.628906 23.335938 15.226562 23.527344 C 15.113281 23.582031 15.003906 23.632812 14.898438 23.675781 L 14.089844 18.058594 C 14.097656 18.046875 14.109375 18.039062 14.117188 18.027344 C 14.425781 17.667969 14.527344 17.121094 14.402344 16.496094 C 14.363281 16.292969 14.308594 16.097656 14.253906 15.90625 C 14.179688 15.648438 14.109375 15.40625 14.082031 15.164062 C 14.042969 14.8125 14.109375 14.359375 14.414062 14.136719 C 14.785156 13.855469 15.375 14.046875 15.609375 14.140625 C 15.730469 14.191406 15.855469 14.246094 15.976562 14.304688 C 16.324219 14.464844 16.683594 14.632812 17.085938 14.671875 C 17.914062 14.761719 18.757812 14.230469 19.046875 13.441406 C 19.328125 12.65625 19.019531 11.714844 18.328125 11.246094 C 18.179688 11.144531 18.023438 11.070312 17.871094 11 C 17.792969 10.960938 17.71875 10.925781 17.640625 10.886719 C 16.734375 10.40625 16.15625 9.355469 16.234375 8.324219 C 16.242188 8.242188 16.253906 8.148438 16.269531 8.046875 C 17.261719 7.683594 18.308594 7.453125 19.386719 7.382812 C 20.59375 10.675781 23.65625 14.570312 23.816406 14.773438 C 23.863281 14.835938 23.9375 14.867188 24.011719 14.867188 C 24.089844 14.867188 24.160156 14.835938 24.207031 14.773438 C 24.328125 14.625 26.039062 12.445312 27.410156 9.988281 C 30.335938 12.4375 31.960938 16.292969 31.375 20.320312 Z M 31.375 20.320312 "/>
</g>
</svg>
