<?xml version="1.0" encoding="UTF-8"?>
<svg xmlns="http://www.w3.org/2000/svg" xmlns:xlink="http://www.w3.org/1999/xlink" width="800px" height="800px" viewBox="0 0 200 200" version="1.1">
<g id="surface1">
<path style=" stroke:none;fill-rule:nonzero;fill:rgb(64.705882%,88.235294%,98.431373%);fill-opacity:1;" d="M 177.207031 65.601562 C 148.917969 37.316406 103.058594 37.316406 74.773438 65.605469 C 46.484375 93.890625 46.484375 139.75 74.769531 168.039062 C 103.058594 196.324219 148.917969 196.324219 177.207031 168.039062 C 205.492188 139.75 205.492188 93.890625 177.207031 65.601562 Z M 177.207031 65.601562 "/>
<path style=" stroke:none;fill-rule:nonzero;fill:rgb(47.843137%,82.352941%,98.039216%);fill-opacity:1;" d="M 191.847656 147 C 175.191406 183.359375 132.183594 199.34375 95.828125 182.6875 C 81.351562 176.035156 70.089844 165.222656 62.851562 152.308594 C 68.132812 157.003906 74.195312 161.03125 80.960938 164.132812 C 117.316406 180.785156 160.324219 164.800781 176.980469 128.445312 C 186.984375 106.5625 185.195312 82.304688 174.269531 62.800781 C 197.351562 83.425781 205.402344 117.40625 191.847656 147 Z M 191.847656 147 "/>
<path style=" stroke:none;fill-rule:nonzero;fill:rgb(83.137255%,94.117647%,98.823529%);fill-opacity:1;" d="M 189.136719 81.351562 C 183.855469 76.65625 177.789062 72.632812 171.027344 69.53125 C 134.671875 52.875 91.664062 68.859375 75.007812 105.214844 C 65.003906 127.097656 66.789062 151.355469 77.71875 170.859375 C 54.636719 150.238281 46.585938 116.253906 60.140625 86.660156 C 76.796875 50.304688 119.804688 34.320312 156.160156 50.972656 C 170.636719 57.625 181.898438 68.441406 189.136719 81.351562 Z M 189.136719 81.351562 "/>
<path style=" stroke:none;fill-rule:nonzero;fill:rgb(48.235294%,87.058824%,61.960784%);fill-opacity:1;" d="M 131.035156 120.175781 C 136.132812 114.972656 145.535156 114.578125 151.089844 119.554688 C 153.640625 121.773438 155.3125 124.972656 157.984375 127.222656 C 160.617188 129.496094 164.882812 130.597656 167.453125 128.363281 C 170.050781 125.917969 169.210938 121.476562 167.539062 118.277344 C 165.859375 115.109375 163.597656 111.867188 163.9375 108.269531 C 164.390625 103.5 169.980469 100.429688 174.726562 101.289062 C 179.386719 102.121094 183.082031 105.867188 185.5625 110.089844 C 187.996094 114.167969 189.476562 118.796875 191.53125 123.085938 C 192.902344 125.789062 194.75 128.496094 197.257812 129.882812 C 196.816406 132.1875 196.269531 134.527344 195.605469 136.832031 C 191.457031 151.28125 183.226562 163.421875 172.480469 172.34375 C 170.328125 170.492188 168.46875 167.933594 166.976562 165.765625 C 164.539062 162.476562 162.613281 158.730469 161.214844 154.917969 C 160.238281 152.042969 159.460938 149.136719 157.804688 146.542969 C 154.441406 141.308594 147.140625 138.898438 141.347656 141.246094 C 139.492188 141.878906 137.722656 143.078125 135.75 143.019531 C 133.777344 142.957031 132.035156 141.761719 130.664062 140.261719 C 125.71875 134.828125 125.816406 125.46875 131.035156 120.175781 Z M 131.035156 120.175781 "/>
<path style=" stroke:none;fill-rule:nonzero;fill:rgb(31.764706%,82.352941%,49.803922%);fill-opacity:1;" d="M 197.257812 129.882812 C 196.816406 132.191406 196.277344 134.535156 195.601562 136.828125 C 191.449219 151.285156 183.226562 163.425781 172.476562 172.335938 C 170.324219 170.492188 168.464844 167.933594 166.972656 165.765625 C 164.546875 162.476562 162.613281 158.730469 161.210938 154.910156 C 160.84375 153.816406 160.507812 152.730469 160.128906 151.648438 C 167.046875 145.300781 172.824219 137.503906 176.980469 128.449219 C 180.242188 121.324219 182.246094 113.949219 183.082031 106.578125 C 184.015625 107.660156 184.835938 108.859375 185.566406 110.085938 C 187.996094 114.167969 189.472656 118.792969 191.535156 123.078125 C 192.910156 125.785156 194.753906 128.492188 197.257812 129.882812 Z M 197.257812 129.882812 "/>
<path style=" stroke:none;fill-rule:nonzero;fill:rgb(48.235294%,87.058824%,61.960784%);fill-opacity:1;" d="M 59.597656 145.800781 C 60.515625 145.570312 61.449219 145.246094 62.304688 144.808594 C 65.59375 143.179688 67.964844 140.179688 70.230469 137.285156 C 72.46875 134.398438 74.871094 131.394531 78.199219 129.847656 C 81.53125 128.300781 86.078125 128.722656 88.1875 131.71875 C 91.71875 136.808594 86.109375 144.410156 89.164062 149.785156 C 93.597656 151.480469 98.453125 145.191406 102.679688 147.347656 C 105.210938 148.652344 105.523438 152.140625 105.242188 154.976562 C 104.9375 157.816406 104.507812 161.078125 106.453125 163.179688 C 108.445312 165.398438 112.058594 165.128906 114.792969 163.917969 C 117.523438 162.675781 119.933594 160.714844 122.824219 159.941406 C 127.664062 158.625 133.039062 161.070312 136.011719 165.105469 C 139.015625 169.136719 139.941406 174.433594 139.527344 179.441406 C 139.300781 182.207031 138.859375 185.191406 138.148438 188.21875 C 137.703125 188.316406 137.253906 188.382812 136.804688 188.453125 C 103.648438 193.457031 72.382812 175.140625 59.597656 145.800781 Z M 59.597656 145.800781 "/>
<path style=" stroke:none;fill-rule:nonzero;fill:rgb(65.490196%,91.764706%,74.901961%);fill-opacity:1;" d="M 77.675781 170.785156 C 70.039062 163.953125 63.808594 155.46875 59.59375 145.796875 C 60.515625 145.578125 61.453125 145.242188 62.300781 144.804688 C 64.789062 143.574219 66.75 141.554688 68.546875 139.390625 C 69.175781 150.4375 72.320312 161.1875 77.675781 170.785156 Z M 77.675781 170.785156 "/>
<path style=" stroke:none;fill-rule:nonzero;fill:rgb(98.823529%,69.019608%,69.019608%);fill-opacity:1;" d="M 77.675781 170.785156 C 77.472656 170.59375 77.265625 170.417969 77.0625 170.214844 C 77.265625 170.417969 77.457031 170.59375 77.660156 170.753906 C 77.660156 170.785156 77.675781 170.785156 77.675781 170.785156 Z M 77.675781 170.785156 "/>
<path style=" stroke:none;fill-rule:nonzero;fill:rgb(31.764706%,82.352941%,49.803922%);fill-opacity:1;" d="M 139.53125 179.445312 C 139.296875 182.210938 138.855469 185.195312 138.152344 188.222656 C 137.699219 188.3125 137.246094 188.382812 136.808594 188.457031 C 114.585938 191.808594 93.210938 184.683594 77.675781 170.785156 C 77.675781 170.785156 77.660156 170.785156 77.660156 170.753906 C 75.671875 167.1875 73.988281 163.457031 72.628906 159.621094 C 75.277344 161.289062 78.042969 162.796875 80.953125 164.128906 C 99.238281 172.511719 119.207031 172.628906 136.660156 166.046875 C 139.148438 169.9375 139.910156 174.808594 139.53125 179.445312 Z M 139.53125 179.445312 "/>
<path style=" stroke:none;fill-rule:nonzero;fill:rgb(48.235294%,87.058824%,61.960784%);fill-opacity:1;" d="M 53.847656 110.414062 C 56.25 83.332031 73.914062 59.089844 100.308594 49.113281 C 100.121094 50.042969 99.972656 51 99.914062 51.929688 C 99.378906 58.941406 103.300781 66.117188 109.527344 69.414062 C 110.890625 70.144531 112.371094 70.714844 113.679688 71.582031 C 117.390625 74.09375 119.09375 79.261719 117.574219 83.488281 C 116.027344 87.722656 111.4375 90.621094 106.960938 90.148438 C 103.824219 89.84375 101.050781 88.117188 98.144531 86.929688 C 95.242188 85.769531 91.65625 85.210938 89.152344 87.09375 C 86.816406 88.804688 86.140625 92.078125 86.453125 94.953125 C 86.800781 97.816406 87.929688 100.5625 88.488281 103.402344 C 89.046875 106.238281 88.921875 109.453125 87.039062 111.671875 C 85.046875 114.042969 81.550781 114.625 78.484375 114.113281 C 75.441406 113.589844 72.605469 112.199219 69.636719 111.246094 C 65.589844 109.933594 61.253906 109.515625 57.019531 109.921875 C 55.945312 110.027344 54.890625 110.1875 53.847656 110.414062 Z M 53.847656 110.414062 "/>
<path style=" stroke:none;fill-rule:nonzero;fill:rgb(65.490196%,91.764706%,74.901961%);fill-opacity:1;" d="M 110.210938 69.769531 C 95.171875 76.777344 82.460938 88.964844 75.015625 105.21875 C 73.960938 107.515625 73.039062 109.839844 72.265625 112.179688 C 71.386719 111.859375 70.523438 111.523438 69.632812 111.246094 C 65.59375 109.925781 61.261719 109.519531 57.019531 109.925781 C 55.953125 110.03125 54.882812 110.191406 53.847656 110.410156 C 56.246094 83.332031 73.917969 59.089844 100.308594 49.113281 C 100.117188 50.050781 99.972656 51 99.914062 51.921875 C 99.386719 58.945312 103.308594 66.113281 109.523438 69.417969 C 109.742188 69.535156 109.976562 69.652344 110.210938 69.769531 Z M 110.210938 69.769531 "/>
<path style=" stroke:none;fill-rule:nonzero;fill:rgb(98.823529%,54.117647%,54.117647%);fill-opacity:1;" d="M 180.46875 31.953125 C 180.46875 52.941406 150.078125 91.367188 150.078125 91.367188 C 150.078125 91.367188 119.6875 52.941406 119.6875 31.953125 C 119.6875 15.167969 133.292969 1.5625 150.078125 1.5625 C 166.867188 1.5625 180.46875 15.167969 180.46875 31.953125 Z M 180.46875 31.953125 "/>
<path style=" stroke:none;fill-rule:nonzero;fill:rgb(98.823529%,69.019608%,69.019608%);fill-opacity:1;" d="M 150.992188 14.242188 C 150.992188 27.550781 138.769531 47.863281 129.828125 60.957031 C 124.253906 50.84375 119.683594 40.09375 119.683594 31.957031 C 119.683594 15.78125 132.324219 2.570312 148.246094 1.613281 C 150.023438 5.464844 150.992188 9.734375 150.992188 14.242188 Z M 150.992188 14.242188 "/>
<path style=" stroke:none;fill-rule:nonzero;fill:rgb(97.647059%,38.823529%,39.215686%);fill-opacity:1;" d="M 180.464844 31.957031 C 180.464844 52.9375 150.074219 91.363281 150.074219 91.363281 C 150.074219 91.363281 146.875 87.328125 142.570312 81.167969 C 149.320312 72.207031 171.003906 42.050781 171.003906 24.335938 C 171.003906 16.953125 168.390625 10.203125 164.003906 4.945312 C 173.78125 9.988281 180.464844 20.183594 180.464844 31.957031 Z M 180.464844 31.957031 "/>
<path style=" stroke:none;fill-rule:nonzero;fill:rgb(100%,100%,100%);fill-opacity:1;" d="M 169.628906 31.953125 C 169.628906 42.753906 160.878906 51.503906 150.078125 51.503906 C 139.277344 51.503906 130.515625 42.753906 130.515625 31.953125 C 130.515625 21.152344 139.277344 12.390625 150.078125 12.390625 C 160.878906 12.390625 169.628906 21.152344 169.628906 31.953125 Z M 169.628906 31.953125 "/>
<path style=" stroke:none;fill-rule:nonzero;fill:rgb(92.941176%,92.941176%,92.941176%);fill-opacity:1;" d="M 169.625 31.953125 C 169.625 42.75 160.875 51.5 150.078125 51.5 C 141.578125 51.5 134.328125 46.078125 131.640625 38.484375 C 134.765625 40.578125 138.515625 41.8125 142.578125 41.8125 C 153.375 41.8125 162.125 33.0625 162.125 22.25 C 162.125 19.953125 161.734375 17.765625 161.019531 15.734375 C 166.203125 19.25 169.625 25.203125 169.625 31.953125 Z M 169.625 31.953125 "/>
<path style=" stroke:none;fill-rule:nonzero;fill:rgb(20%,20%,20%);fill-opacity:1;" d="M 150.078125 53.066406 C 138.429688 53.066406 128.953125 43.597656 128.953125 31.953125 C 128.953125 20.304688 138.429688 10.828125 150.078125 10.828125 C 161.722656 10.828125 171.191406 20.304688 171.191406 31.953125 C 171.195312 43.597656 161.722656 53.066406 150.078125 53.066406 Z M 150.078125 13.953125 C 140.15625 13.953125 132.078125 22.03125 132.078125 31.953125 C 132.078125 41.871094 140.15625 49.941406 150.078125 49.941406 C 159.996094 49.941406 168.066406 41.871094 168.066406 31.953125 C 168.066406 22.03125 159.996094 13.953125 150.078125 13.953125 Z M 150.078125 13.953125 "/>
<path style=" stroke:none;fill-rule:nonzero;fill:rgb(99.607843%,86.666667%,55.686275%);fill-opacity:1;" d="M 92.421875 198.4375 L 7.125 198.4375 C 3.742188 198.4375 1.148438 195.4375 1.625 192.082031 L 13.074219 112.832031 C 13.480469 110.09375 15.8125 108.070312 18.597656 108.070312 L 80.96875 108.070312 C 83.730469 108.070312 86.089844 110.09375 86.46875 112.832031 L 97.921875 192.082031 C 98.421875 195.4375 95.800781 198.4375 92.421875 198.4375 Z M 92.421875 198.4375 "/>
<path style=" stroke:none;fill-rule:nonzero;fill:rgb(99.607843%,91.372549%,70.588235%);fill-opacity:1;" d="M 26.046875 108.066406 C 23.257812 108.066406 20.925781 110.09375 20.515625 112.832031 L 9.070312 192.082031 C 8.59375 195.4375 11.1875 198.4375 14.570312 198.4375 L 7.125 198.4375 C 3.742188 198.4375 1.152344 195.4375 1.625 192.082031 L 13.074219 112.832031 C 13.484375 110.089844 15.816406 108.066406 18.601562 108.066406 Z M 26.046875 108.066406 "/>
<path style=" stroke:none;fill-rule:nonzero;fill:rgb(99.215686%,82.745098%,40.392157%);fill-opacity:1;" d="M 73.503906 108.066406 C 76.292969 108.066406 78.625 110.09375 79.035156 112.832031 L 90.484375 192.082031 C 90.957031 195.4375 88.363281 198.4375 84.980469 198.4375 L 92.425781 198.4375 C 95.808594 198.4375 98.398438 195.4375 97.925781 192.082031 L 86.476562 112.832031 C 86.070312 110.09375 83.734375 108.066406 80.949219 108.066406 Z M 73.503906 108.066406 "/>
<path style=" stroke:none;fill-rule:nonzero;fill:rgb(99.215686%,82.745098%,40.392157%);fill-opacity:1;" d="M 22.128906 121.265625 C 22.128906 117.578125 25.132812 114.601562 28.792969 114.601562 C 32.480469 114.601562 35.484375 117.578125 35.484375 121.265625 C 35.484375 124.953125 32.480469 127.929688 28.792969 127.929688 C 25.132812 127.929688 22.128906 124.953125 22.128906 121.265625 Z M 22.128906 121.265625 "/>
<path style=" stroke:none;fill-rule:nonzero;fill:rgb(99.215686%,82.745098%,40.392157%);fill-opacity:1;" d="M 64.066406 121.265625 C 64.066406 117.578125 67.070312 114.601562 70.726562 114.601562 C 74.417969 114.601562 77.421875 117.578125 77.421875 121.265625 C 77.421875 124.953125 74.417969 127.929688 70.726562 127.929688 C 67.070312 127.929688 64.066406 124.953125 64.066406 121.265625 Z M 64.066406 121.265625 "/>
<path style=" stroke:none;fill-rule:nonzero;fill:rgb(100%,100%,100%);fill-opacity:1;" d="M 73.8125 102.222656 L 73.8125 120.78125 C 73.8125 122.472656 72.433594 123.839844 70.742188 123.839844 C 69.046875 123.839844 67.667969 122.472656 67.667969 120.78125 L 67.667969 102.222656 C 67.667969 97.429688 65.8125 92.933594 62.429688 89.566406 C 59.0625 86.179688 54.5625 84.3125 49.769531 84.3125 C 39.902344 84.3125 31.875 92.355469 31.875 102.222656 L 31.875 120.78125 C 31.875 122.472656 30.492188 123.839844 28.816406 123.839844 C 27.125 123.839844 25.746094 122.472656 25.746094 120.78125 L 25.746094 102.222656 C 25.746094 88.972656 36.519531 78.183594 49.769531 78.183594 C 56.210938 78.183594 62.238281 80.675781 66.765625 85.230469 C 71.304688 89.742188 73.8125 95.78125 73.8125 102.222656 Z M 73.8125 102.222656 "/>
<path style=" stroke:none;fill-rule:nonzero;fill:rgb(20%,20%,20%);fill-opacity:1;" d="M 172.835938 59.621094 C 177.988281 49.9375 182.03125 39.835938 182.03125 31.953125 C 182.03125 14.335938 167.699219 0 150.078125 0 C 132.460938 0 118.125 14.335938 118.125 31.953125 C 118.125 35.320312 118.867188 39.097656 120.113281 43.070312 C 106.777344 44.105469 93.933594 48.746094 82.792969 56.753906 C 74.167969 62.957031 67.140625 70.78125 61.972656 79.707031 C 58.277344 77.695312 54.113281 76.621094 49.773438 76.621094 C 35.660156 76.621094 24.183594 88.105469 24.183594 102.222656 L 24.183594 106.507812 L 18.597656 106.507812 C 15.023438 106.507812 12.050781 109.070312 11.53125 112.609375 L 0.078125 191.859375 C -0.214844 193.914062 0.398438 195.988281 1.753906 197.550781 C 3.105469 199.105469 5.0625 200 7.125 200 L 92.421875 200 C 94.496094 200 96.464844 199.097656 97.820312 197.523438 C 99.167969 195.960938 99.769531 193.890625 99.464844 191.859375 L 98.554688 185.550781 C 103.5 187.515625 108.683594 188.976562 114.0625 189.855469 C 118.097656 190.515625 122.136719 190.839844 126.144531 190.839844 C 141.515625 190.839844 156.464844 186.054688 169.191406 176.902344 C 185.242188 165.359375 195.832031 148.265625 199.019531 128.761719 C 203.425781 101.796875 192.570312 75.828125 172.835938 59.621094 Z M 150.078125 3.125 C 165.976562 3.125 178.90625 16.058594 178.90625 31.953125 C 178.90625 49.789062 155.726562 81.378906 150.078125 88.808594 C 144.433594 81.378906 121.25 49.789062 121.25 31.953125 C 121.25 16.058594 134.183594 3.125 150.078125 3.125 Z M 98.378906 51.601562 C 98.371094 51.667969 98.359375 51.742188 98.355469 51.808594 C 97.777344 59.425781 102.070312 67.234375 108.792969 70.792969 C 109.300781 71.0625 109.824219 71.316406 110.351562 71.566406 C 111.234375 71.988281 112.066406 72.386719 112.804688 72.878906 C 115.925781 74.988281 117.375 79.417969 116.105469 82.953125 C 114.808594 86.511719 110.859375 88.984375 107.113281 88.59375 C 105.097656 88.398438 103.191406 87.511719 101.171875 86.570312 C 100.363281 86.195312 99.554688 85.816406 98.722656 85.476562 C 96.277344 84.503906 91.664062 83.253906 88.226562 85.835938 C 85.710938 87.679688 84.46875 91.152344 84.902344 95.140625 C 85.117188 96.917969 85.605469 98.621094 86.074219 100.269531 C 86.414062 101.449219 86.730469 102.570312 86.953125 103.703125 C 87.226562 105.082031 87.457031 107.40625 86.632812 109.339844 C 85.320312 107.617188 83.257812 106.507812 80.96875 106.507812 L 75.375 106.507812 L 75.375 102.226562 C 75.375 95.363281 72.707031 88.933594 67.871094 84.128906 C 66.871094 83.121094 65.785156 82.230469 64.652344 81.417969 C 72.40625 68.023438 84.320312 57.574219 98.378906 51.601562 Z M 27.308594 102.222656 C 27.308594 89.828125 37.382812 79.746094 49.773438 79.746094 C 55.792969 79.746094 61.433594 82.085938 65.664062 86.339844 C 69.910156 90.558594 72.25 96.199219 72.25 102.222656 L 72.25 120.78125 C 72.25 121.605469 71.570312 122.277344 70.742188 122.277344 C 69.910156 122.277344 69.230469 121.605469 69.230469 120.78125 L 69.230469 102.222656 C 69.230469 97.007812 67.207031 92.117188 63.539062 88.464844 C 59.871094 84.777344 54.980469 82.75 49.773438 82.75 C 39.039062 82.75 30.3125 91.484375 30.3125 102.222656 L 30.3125 120.78125 C 30.3125 121.605469 29.640625 122.277344 28.816406 122.277344 C 27.984375 122.277344 27.308594 121.605469 27.308594 120.78125 Z M 56.050781 105.402344 C 56.9375 99.964844 58.496094 94.816406 60.515625 89.933594 C 60.789062 90.175781 61.066406 90.414062 61.328125 90.671875 C 64.410156 93.742188 66.105469 97.84375 66.105469 102.226562 L 66.105469 106.507812 L 55.898438 106.507812 C 55.945312 106.140625 55.988281 105.769531 56.050781 105.402344 Z M 52.964844 104.898438 C 52.875 105.433594 52.8125 105.96875 52.742188 106.507812 L 33.4375 106.507812 L 33.4375 102.222656 C 33.4375 93.210938 40.765625 85.875 49.773438 85.875 C 52.667969 85.875 55.4375 86.636719 57.875 88.039062 C 55.617188 93.390625 53.925781 99.019531 52.964844 104.898438 Z M 95.453125 195.484375 C 94.691406 196.367188 93.585938 196.875 92.421875 196.875 L 7.125 196.875 C 5.96875 196.875 4.871094 196.375 4.113281 195.5 C 3.351562 194.625 3.007812 193.457031 3.167969 192.304688 L 14.621094 113.058594 C 14.914062 111.074219 16.585938 109.632812 18.597656 109.632812 L 24.183594 109.632812 L 24.183594 120.78125 C 24.183594 123.328125 26.261719 125.402344 28.816406 125.402344 C 31.363281 125.402344 33.4375 123.328125 33.4375 120.78125 L 33.4375 109.632812 L 66.105469 109.632812 L 66.105469 120.78125 C 66.105469 123.328125 68.183594 125.402344 70.742188 125.402344 C 73.296875 125.402344 75.375 123.328125 75.375 120.78125 L 75.375 109.632812 L 80.96875 109.632812 C 82.953125 109.632812 84.648438 111.101562 84.921875 113.054688 L 96.375 192.3125 C 96.546875 193.453125 96.210938 194.609375 95.453125 195.484375 Z M 137.96875 179.3125 C 137.761719 181.867188 137.355469 184.402344 136.820312 186.882812 C 129.535156 188 122.046875 187.996094 114.5625 186.773438 C 108.746094 185.820312 103.21875 184.167969 98.03125 181.9375 L 93.578125 151.113281 C 94.59375 150.773438 95.582031 150.324219 96.511719 149.878906 C 98.988281 148.699219 100.589844 148.03125 101.960938 148.734375 C 103.960938 149.765625 103.835938 153.335938 103.6875 154.808594 L 103.660156 155.082031 C 103.339844 158.023438 102.9375 161.683594 105.289062 164.222656 C 107.949219 167.1875 112.417969 166.679688 115.4375 165.335938 C 116.554688 164.832031 117.601562 164.222656 118.613281 163.632812 C 120.171875 162.726562 121.644531 161.875 123.234375 161.445312 C 127.167969 160.382812 132.011719 162.308594 134.761719 166.039062 C 137.257812 169.394531 138.398438 174.105469 137.96875 179.3125 Z M 172.570312 170.238281 C 170.992188 168.667969 169.558594 166.765625 168.230469 164.835938 C 166.011719 161.835938 164.089844 158.21875 162.691406 154.414062 C 162.519531 153.90625 162.355469 153.398438 162.191406 152.894531 C 161.402344 150.488281 160.589844 148 159.121094 145.695312 C 155.304688 139.761719 147.242188 137.171875 140.84375 139.765625 C 140.226562 139.976562 139.621094 140.242188 139.015625 140.511719 C 137.878906 141.015625 136.761719 141.5 135.800781 141.453125 C 134.164062 141.40625 132.730469 140.203125 131.820312 139.210938 C 127.382812 134.332031 127.535156 125.953125 132.152344 121.269531 C 136.679688 116.640625 145.207031 116.382812 150.066406 120.734375 C 151.195312 121.71875 152.160156 122.941406 153.183594 124.238281 C 154.316406 125.675781 155.484375 127.160156 156.964844 128.40625 C 160.082031 131.097656 165.175781 132.410156 168.523438 129.503906 C 171.8125 126.40625 170.796875 121.132812 168.921875 117.542969 C 168.640625 117.023438 168.351562 116.5 168.058594 115.972656 C 166.617188 113.390625 165.253906 110.949219 165.492188 108.417969 C 165.636719 106.917969 166.488281 105.507812 167.890625 104.441406 C 169.734375 103.046875 172.25 102.421875 174.453125 102.828125 C 179.339844 103.699219 182.667969 108.25 184.222656 110.890625 C 185.679688 113.332031 186.820312 116.078125 187.925781 118.734375 C 188.617188 120.390625 189.332031 122.105469 190.140625 123.792969 C 191.746094 126.953125 193.503906 129.191406 195.492188 130.605469 C 192.429688 146.128906 184.425781 159.9375 172.570312 170.238281 Z M 196.097656 126.992188 C 194.988281 125.871094 193.929688 124.355469 192.941406 122.410156 C 192.183594 120.828125 191.484375 119.152344 190.808594 117.53125 C 189.664062 114.777344 188.476562 111.925781 186.910156 109.296875 C 183.765625 103.953125 179.535156 100.5625 175.003906 99.75 C 171.925781 99.195312 168.558594 100.015625 166.003906 101.949219 C 163.894531 103.550781 162.609375 105.742188 162.382812 108.121094 C 162.054688 111.625 163.792969 114.742188 165.328125 117.496094 C 165.613281 118.003906 165.890625 118.507812 166.15625 119 C 167.628906 121.816406 168.269531 125.453125 166.429688 127.183594 C 164.550781 128.8125 161.113281 127.859375 158.992188 126.03125 C 157.742188 124.976562 156.71875 123.679688 155.636719 122.304688 C 154.570312 120.949219 153.46875 119.550781 152.128906 118.390625 C 146.023438 112.914062 135.640625 113.234375 129.921875 119.078125 C 124.203125 124.882812 124.011719 135.269531 129.511719 141.316406 C 131.402344 143.382812 133.542969 144.511719 135.703125 144.578125 C 137.425781 144.601562 138.941406 143.960938 140.28125 143.367188 C 140.804688 143.136719 141.324219 142.902344 141.9375 142.691406 C 146.980469 140.648438 153.511719 142.75 156.488281 147.382812 C 157.742188 149.347656 158.460938 151.539062 159.21875 153.863281 C 159.390625 154.382812 159.558594 154.902344 159.746094 155.453125 C 161.28125 159.628906 163.289062 163.414062 165.6875 166.652344 C 167.023438 168.59375 168.503906 170.546875 170.167969 172.246094 C 169.253906 172.972656 168.320312 173.679688 167.367188 174.363281 C 159.082031 180.320312 149.8125 184.328125 140.105469 186.296875 C 140.542969 184.082031 140.898438 181.835938 141.085938 179.570312 C 141.574219 173.601562 140.21875 168.136719 137.269531 164.179688 C 133.734375 159.382812 127.632812 157.015625 122.417969 158.429688 C 120.429688 158.960938 118.707031 159.964844 117.042969 160.933594 C 116.054688 161.507812 115.121094 162.050781 114.160156 162.488281 C 111.941406 163.46875 109.058594 163.742188 107.597656 162.117188 C 106.199219 160.605469 106.488281 157.972656 106.765625 155.421875 L 106.796875 155.128906 C 107.246094 150.578125 106.039062 147.320312 103.386719 145.953125 C 100.539062 144.5 97.6875 145.859375 95.167969 147.054688 C 94.46875 147.390625 93.785156 147.707031 93.125 147.964844 L 88.050781 112.859375 C 88.109375 112.796875 88.175781 112.746094 88.230469 112.683594 C 90.15625 110.414062 90.789062 107.011719 90.023438 103.097656 C 89.773438 101.835938 89.421875 100.601562 89.082031 99.410156 C 88.621094 97.808594 88.191406 96.296875 88.007812 94.78125 C 87.765625 92.585938 88.183594 89.742188 90.089844 88.34375 C 92.402344 86.605469 96.085938 87.789062 97.550781 88.375 C 98.324219 88.691406 99.089844 89.046875 99.855469 89.402344 C 102.023438 90.410156 104.265625 91.457031 106.796875 91.699219 C 111.976562 92.253906 117.246094 88.949219 119.046875 84.015625 C 120.808594 79.109375 118.875 73.210938 114.546875 70.28125 C 113.613281 69.660156 112.640625 69.199219 111.699219 68.746094 C 111.214844 68.515625 110.730469 68.285156 110.257812 68.03125 C 104.597656 65.035156 100.984375 58.460938 101.472656 52.03125 C 101.507812 51.503906 101.589844 50.914062 101.691406 50.296875 C 107.878906 48.027344 114.421875 46.59375 121.167969 46.132812 C 128.71875 66.710938 147.847656 91.066406 148.855469 92.335938 C 149.148438 92.714844 149.601562 92.929688 150.078125 92.929688 C 150.558594 92.929688 151.007812 92.714844 151.304688 92.335938 C 152.050781 91.398438 162.742188 77.792969 171.304688 62.4375 C 189.605469 77.726562 199.75 101.832031 196.097656 126.992188 Z M 196.097656 126.992188 "/>
</g>
</svg>
