<?xml version="1.0" encoding="UTF-8"?>
<svg xmlns="http://www.w3.org/2000/svg" xmlns:xlink="http://www.w3.org/1999/xlink" width="64px" height="64px" viewBox="0 0 16 16" version="1.1">
<g id="surface1">
<path style=" stroke:none;fill-rule:nonzero;fill:rgb(64.705882%,88.235294%,98.431373%);fill-opacity:1;" d="M 14.175781 5.25 C 11.914062 2.984375 8.246094 2.984375 5.980469 5.25 C 3.71875 7.511719 3.71875 11.179688 5.980469 13.441406 C 8.246094 15.707031 11.914062 15.707031 14.175781 13.441406 C 16.4375 11.179688 16.4375 7.511719 14.175781 5.25 Z M 14.175781 5.25 "/>
<path style=" stroke:none;fill-rule:nonzero;fill:rgb(47.843137%,82.352941%,98.039216%);fill-opacity:1;" d="M 15.347656 11.761719 C 14.015625 14.667969 10.574219 15.949219 7.667969 14.613281 C 6.507812 14.082031 5.605469 13.21875 5.027344 12.183594 C 5.449219 12.558594 5.9375 12.882812 6.476562 13.128906 C 9.386719 14.464844 12.824219 13.183594 14.160156 10.277344 C 14.957031 8.523438 14.816406 6.585938 13.941406 5.023438 C 15.789062 6.675781 16.433594 9.390625 15.347656 11.761719 Z M 15.347656 11.761719 "/>
<path style=" stroke:none;fill-rule:nonzero;fill:rgb(83.137255%,94.117647%,98.823529%);fill-opacity:1;" d="M 15.132812 6.507812 C 14.707031 6.132812 14.222656 5.8125 13.683594 5.5625 C 10.773438 4.230469 7.332031 5.507812 6 8.417969 C 5.199219 10.167969 5.34375 12.109375 6.21875 13.667969 C 4.371094 12.019531 3.726562 9.300781 4.8125 6.933594 C 6.144531 4.023438 9.585938 2.746094 12.492188 4.078125 C 13.652344 4.609375 14.550781 5.476562 15.132812 6.507812 Z M 15.132812 6.507812 "/>
<path style=" stroke:none;fill-rule:nonzero;fill:rgb(48.235294%,87.058824%,61.960784%);fill-opacity:1;" d="M 10.484375 9.613281 C 10.890625 9.199219 11.644531 9.167969 12.085938 9.5625 C 12.292969 9.742188 12.425781 9.996094 12.640625 10.179688 C 12.847656 10.359375 13.191406 10.449219 13.394531 10.269531 C 13.605469 10.074219 13.535156 9.71875 13.402344 9.460938 C 13.269531 9.207031 13.085938 8.949219 13.113281 8.660156 C 13.152344 8.28125 13.597656 8.035156 13.976562 8.101562 C 14.351562 8.167969 14.644531 8.46875 14.84375 8.808594 C 15.039062 9.132812 15.15625 9.503906 15.324219 9.847656 C 15.433594 10.0625 15.578125 10.28125 15.78125 10.390625 C 15.746094 10.574219 15.703125 10.761719 15.648438 10.945312 C 15.316406 12.101562 14.65625 13.074219 13.796875 13.789062 C 13.625 13.640625 13.476562 13.433594 13.359375 13.261719 C 13.164062 13 13.007812 12.699219 12.898438 12.394531 C 12.820312 12.164062 12.757812 11.929688 12.625 11.722656 C 12.355469 11.304688 11.769531 11.113281 11.308594 11.300781 C 11.160156 11.351562 11.019531 11.445312 10.859375 11.441406 C 10.703125 11.4375 10.5625 11.339844 10.453125 11.222656 C 10.058594 10.785156 10.066406 10.039062 10.484375 9.613281 Z M 10.484375 9.613281 "/>
<path style=" stroke:none;fill-rule:nonzero;fill:rgb(31.764706%,82.352941%,49.803922%);fill-opacity:1;" d="M 15.78125 10.390625 C 15.746094 10.574219 15.703125 10.761719 15.648438 10.945312 C 15.316406 12.101562 14.65625 13.074219 13.796875 13.785156 C 13.625 13.640625 13.476562 13.433594 13.359375 13.261719 C 13.164062 12.996094 13.007812 12.699219 12.898438 12.394531 C 12.867188 12.304688 12.839844 12.21875 12.808594 12.132812 C 13.363281 11.625 13.824219 11 14.160156 10.277344 C 14.417969 9.707031 14.578125 9.117188 14.644531 8.527344 C 14.722656 8.613281 14.785156 8.707031 14.84375 8.808594 C 15.039062 9.132812 15.15625 9.503906 15.324219 9.847656 C 15.433594 10.0625 15.582031 10.28125 15.78125 10.390625 Z M 15.78125 10.390625 "/>
<path style=" stroke:none;fill-rule:nonzero;fill:rgb(48.235294%,87.058824%,61.960784%);fill-opacity:1;" d="M 4.769531 11.664062 C 4.839844 11.644531 4.917969 11.621094 4.984375 11.585938 C 5.246094 11.453125 5.4375 11.214844 5.617188 10.984375 C 5.796875 10.753906 5.988281 10.511719 6.257812 10.386719 C 6.523438 10.265625 6.886719 10.296875 7.054688 10.539062 C 7.335938 10.945312 6.890625 11.554688 7.132812 11.984375 C 7.488281 12.117188 7.875 11.613281 8.214844 11.789062 C 8.417969 11.890625 8.441406 12.171875 8.417969 12.398438 C 8.394531 12.625 8.359375 12.886719 8.515625 13.054688 C 8.675781 13.230469 8.964844 13.210938 9.183594 13.113281 C 9.402344 13.015625 9.59375 12.855469 9.824219 12.796875 C 10.214844 12.691406 10.644531 12.886719 10.882812 13.207031 C 11.121094 13.53125 11.195312 13.953125 11.164062 14.355469 C 11.144531 14.578125 11.109375 14.816406 11.050781 15.058594 C 11.015625 15.066406 10.980469 15.070312 10.945312 15.074219 C 8.292969 15.476562 5.789062 14.011719 4.769531 11.664062 Z M 4.769531 11.664062 "/>
<path style=" stroke:none;fill-rule:nonzero;fill:rgb(65.490196%,91.764706%,74.901961%);fill-opacity:1;" d="M 6.214844 13.664062 C 5.601562 13.117188 5.105469 12.4375 4.769531 11.664062 C 4.839844 11.644531 4.917969 11.621094 4.984375 11.585938 C 5.183594 11.484375 5.339844 11.324219 5.484375 11.152344 C 5.535156 12.035156 5.785156 12.894531 6.214844 13.664062 Z M 6.214844 13.664062 "/>
<path style=" stroke:none;fill-rule:nonzero;fill:rgb(98.823529%,69.019608%,69.019608%);fill-opacity:1;" d="M 6.214844 13.664062 C 6.199219 13.648438 6.179688 13.632812 6.164062 13.617188 C 6.179688 13.632812 6.195312 13.648438 6.214844 13.660156 C 6.214844 13.664062 6.214844 13.664062 6.214844 13.664062 Z M 6.214844 13.664062 "/>
<path style=" stroke:none;fill-rule:nonzero;fill:rgb(31.764706%,82.352941%,49.803922%);fill-opacity:1;" d="M 11.164062 14.355469 C 11.144531 14.578125 11.109375 14.816406 11.050781 15.058594 C 11.015625 15.066406 10.980469 15.070312 10.945312 15.078125 C 9.167969 15.34375 7.457031 14.773438 6.214844 13.664062 C 6.214844 13.664062 6.214844 13.664062 6.214844 13.660156 C 6.054688 13.375 5.917969 13.078125 5.808594 12.769531 C 6.023438 12.902344 6.242188 13.023438 6.476562 13.128906 C 7.9375 13.800781 9.535156 13.808594 10.933594 13.285156 C 11.132812 13.59375 11.191406 13.984375 11.164062 14.355469 Z M 11.164062 14.355469 "/>
<path style=" stroke:none;fill-rule:nonzero;fill:rgb(48.235294%,87.058824%,61.960784%);fill-opacity:1;" d="M 4.308594 8.832031 C 4.5 6.667969 5.914062 4.726562 8.023438 3.929688 C 8.007812 4.003906 7.996094 4.078125 7.992188 4.152344 C 7.949219 4.714844 8.265625 5.289062 8.761719 5.554688 C 8.871094 5.613281 8.988281 5.65625 9.09375 5.726562 C 9.390625 5.925781 9.527344 6.339844 9.40625 6.679688 C 9.28125 7.019531 8.914062 7.25 8.558594 7.210938 C 8.304688 7.1875 8.085938 7.050781 7.851562 6.953125 C 7.621094 6.863281 7.332031 6.816406 7.132812 6.96875 C 6.945312 7.105469 6.890625 7.367188 6.917969 7.597656 C 6.945312 7.824219 7.035156 8.046875 7.078125 8.273438 C 7.125 8.5 7.113281 8.757812 6.964844 8.933594 C 6.804688 9.125 6.523438 9.171875 6.277344 9.128906 C 6.035156 9.085938 5.808594 8.976562 5.570312 8.898438 C 5.246094 8.792969 4.902344 8.761719 4.5625 8.792969 C 4.476562 8.800781 4.390625 8.816406 4.308594 8.832031 Z M 4.308594 8.832031 "/>
<path style=" stroke:none;fill-rule:nonzero;fill:rgb(65.490196%,91.764706%,74.901961%);fill-opacity:1;" d="M 8.816406 5.582031 C 7.613281 6.140625 6.597656 7.117188 6 8.417969 C 5.917969 8.601562 5.84375 8.789062 5.78125 8.972656 C 5.710938 8.949219 5.640625 8.921875 5.570312 8.898438 C 5.246094 8.792969 4.902344 8.761719 4.5625 8.792969 C 4.476562 8.800781 4.390625 8.816406 4.308594 8.832031 C 4.5 6.667969 5.914062 4.726562 8.023438 3.929688 C 8.007812 4.003906 7.996094 4.078125 7.992188 4.152344 C 7.949219 4.714844 8.265625 5.289062 8.761719 5.554688 C 8.78125 5.5625 8.796875 5.570312 8.816406 5.582031 Z M 8.816406 5.582031 "/>
<path style=" stroke:none;fill-rule:nonzero;fill:rgb(98.823529%,54.117647%,54.117647%);fill-opacity:1;" d="M 14.4375 2.554688 C 14.4375 4.234375 12.007812 7.308594 12.007812 7.308594 C 12.007812 7.308594 9.574219 4.234375 9.574219 2.554688 C 9.574219 1.214844 10.664062 0.125 12.007812 0.125 C 13.347656 0.125 14.4375 1.214844 14.4375 2.554688 Z M 14.4375 2.554688 "/>
<path style=" stroke:none;fill-rule:nonzero;fill:rgb(98.823529%,69.019608%,69.019608%);fill-opacity:1;" d="M 12.078125 1.140625 C 12.078125 2.203125 11.101562 3.828125 10.386719 4.875 C 9.941406 4.066406 9.574219 3.207031 9.574219 2.554688 C 9.574219 1.261719 10.585938 0.207031 11.859375 0.128906 C 12 0.4375 12.078125 0.777344 12.078125 1.140625 Z M 12.078125 1.140625 "/>
<path style=" stroke:none;fill-rule:nonzero;fill:rgb(97.647059%,38.823529%,39.215686%);fill-opacity:1;" d="M 14.4375 2.554688 C 14.4375 4.234375 12.003906 7.308594 12.003906 7.308594 C 12.003906 7.308594 11.75 6.984375 11.40625 6.492188 C 11.945312 5.777344 13.679688 3.363281 13.679688 1.945312 C 13.679688 1.355469 13.472656 0.816406 13.121094 0.394531 C 13.902344 0.800781 14.4375 1.613281 14.4375 2.554688 Z M 14.4375 2.554688 "/>
<path style=" stroke:none;fill-rule:nonzero;fill:rgb(100%,100%,100%);fill-opacity:1;" d="M 13.570312 2.554688 C 13.570312 3.421875 12.871094 4.121094 12.007812 4.121094 C 11.140625 4.121094 10.441406 3.421875 10.441406 2.554688 C 10.441406 1.691406 11.140625 0.992188 12.007812 0.992188 C 12.871094 0.992188 13.570312 1.691406 13.570312 2.554688 Z M 13.570312 2.554688 "/>
<path style=" stroke:none;fill-rule:nonzero;fill:rgb(92.941176%,92.941176%,92.941176%);fill-opacity:1;" d="M 13.570312 2.554688 C 13.570312 3.421875 12.871094 4.121094 12.007812 4.121094 C 11.328125 4.121094 10.746094 3.6875 10.53125 3.078125 C 10.78125 3.246094 11.082031 3.34375 11.40625 3.34375 C 12.269531 3.34375 12.96875 2.644531 12.96875 1.78125 C 12.96875 1.597656 12.9375 1.421875 12.882812 1.257812 C 13.296875 1.539062 13.570312 2.015625 13.570312 2.554688 Z M 13.570312 2.554688 "/>
<path style=" stroke:none;fill-rule:nonzero;fill:rgb(20%,20%,20%);fill-opacity:1;" d="M 12.007812 4.246094 C 11.074219 4.246094 10.316406 3.488281 10.316406 2.554688 C 10.316406 1.625 11.074219 0.867188 12.007812 0.867188 C 12.9375 0.867188 13.695312 1.625 13.695312 2.554688 C 13.695312 3.488281 12.9375 4.246094 12.007812 4.246094 Z M 12.007812 1.117188 C 11.210938 1.117188 10.566406 1.761719 10.566406 2.554688 C 10.566406 3.351562 11.210938 3.996094 12.007812 3.996094 C 12.800781 3.996094 13.445312 3.351562 13.445312 2.554688 C 13.445312 1.761719 12.800781 1.117188 12.007812 1.117188 Z M 12.007812 1.117188 "/>
<path style=" stroke:none;fill-rule:nonzero;fill:rgb(99.607843%,86.666667%,55.686275%);fill-opacity:1;" d="M 7.394531 15.875 L 0.570312 15.875 C 0.300781 15.875 0.09375 15.636719 0.128906 15.367188 L 1.046875 9.027344 C 1.078125 8.808594 1.265625 8.644531 1.488281 8.644531 L 6.476562 8.644531 C 6.699219 8.644531 6.886719 8.808594 6.917969 9.027344 L 7.832031 15.367188 C 7.875 15.636719 7.664062 15.875 7.394531 15.875 Z M 7.394531 15.875 "/>
<path style=" stroke:none;fill-rule:nonzero;fill:rgb(99.607843%,91.372549%,70.588235%);fill-opacity:1;" d="M 2.082031 8.644531 C 1.859375 8.644531 1.675781 8.808594 1.640625 9.027344 L 0.726562 15.367188 C 0.6875 15.636719 0.894531 15.875 1.164062 15.875 L 0.570312 15.875 C 0.300781 15.875 0.09375 15.636719 0.128906 15.367188 L 1.046875 9.027344 C 1.078125 8.808594 1.265625 8.644531 1.488281 8.644531 Z M 2.082031 8.644531 "/>
<path style=" stroke:none;fill-rule:nonzero;fill:rgb(99.215686%,82.745098%,40.392157%);fill-opacity:1;" d="M 5.878906 8.644531 C 6.101562 8.644531 6.289062 8.808594 6.324219 9.027344 L 7.238281 15.367188 C 7.277344 15.636719 7.070312 15.875 6.796875 15.875 L 7.394531 15.875 C 7.664062 15.875 7.871094 15.636719 7.835938 15.367188 L 6.917969 9.027344 C 6.886719 8.808594 6.699219 8.644531 6.476562 8.644531 Z M 5.878906 8.644531 "/>
<path style=" stroke:none;fill-rule:nonzero;fill:rgb(99.215686%,82.745098%,40.392157%);fill-opacity:1;" d="M 1.769531 9.703125 C 1.769531 9.40625 2.011719 9.167969 2.304688 9.167969 C 2.597656 9.167969 2.839844 9.40625 2.839844 9.703125 C 2.839844 9.996094 2.597656 10.234375 2.304688 10.234375 C 2.011719 10.234375 1.769531 9.996094 1.769531 9.703125 Z M 1.769531 9.703125 "/>
<path style=" stroke:none;fill-rule:nonzero;fill:rgb(99.215686%,82.745098%,40.392157%);fill-opacity:1;" d="M 5.125 9.703125 C 5.125 9.40625 5.367188 9.167969 5.660156 9.167969 C 5.953125 9.167969 6.195312 9.40625 6.195312 9.703125 C 6.195312 9.996094 5.953125 10.234375 5.660156 10.234375 C 5.367188 10.234375 5.125 9.996094 5.125 9.703125 Z M 5.125 9.703125 "/>
<path style=" stroke:none;fill-rule:nonzero;fill:rgb(100%,100%,100%);fill-opacity:1;" d="M 5.90625 8.179688 L 5.90625 9.664062 C 5.90625 9.796875 5.792969 9.90625 5.660156 9.90625 C 5.523438 9.90625 5.414062 9.796875 5.414062 9.664062 L 5.414062 8.179688 C 5.414062 7.792969 5.265625 7.433594 4.996094 7.164062 C 4.726562 6.894531 4.363281 6.746094 3.980469 6.746094 C 3.191406 6.746094 2.550781 7.386719 2.550781 8.179688 L 2.550781 9.664062 C 2.550781 9.796875 2.441406 9.90625 2.304688 9.90625 C 2.171875 9.90625 2.058594 9.796875 2.058594 9.664062 L 2.058594 8.179688 C 2.058594 7.117188 2.921875 6.253906 3.980469 6.253906 C 4.496094 6.253906 4.980469 6.453125 5.339844 6.820312 C 5.703125 7.179688 5.90625 7.664062 5.90625 8.179688 Z M 5.90625 8.179688 "/>
<path style=" stroke:none;fill-rule:nonzero;fill:rgb(20%,20%,20%);fill-opacity:1;" d="M 13.828125 4.769531 C 14.238281 3.996094 14.5625 3.1875 14.5625 2.554688 C 14.5625 1.148438 13.414062 0 12.007812 0 C 10.597656 0 9.449219 1.148438 9.449219 2.554688 C 9.449219 2.824219 9.507812 3.128906 9.609375 3.445312 C 8.542969 3.527344 7.515625 3.898438 6.625 4.539062 C 5.933594 5.035156 5.371094 5.664062 4.957031 6.375 C 4.664062 6.214844 4.328125 6.128906 3.980469 6.128906 C 2.851562 6.128906 1.933594 7.046875 1.933594 8.179688 L 1.933594 8.519531 L 1.488281 8.519531 C 1.203125 8.519531 0.964844 8.726562 0.921875 9.007812 L 0.0078125 15.347656 C -0.015625 15.511719 0.03125 15.679688 0.140625 15.804688 C 0.25 15.929688 0.40625 16 0.570312 16 L 7.394531 16 C 7.558594 16 7.71875 15.929688 7.824219 15.800781 C 7.933594 15.675781 7.980469 15.511719 7.957031 15.347656 L 7.882812 14.84375 C 8.28125 15 8.695312 15.117188 9.125 15.1875 C 9.449219 15.242188 9.769531 15.265625 10.089844 15.265625 C 11.320312 15.265625 12.515625 14.882812 13.535156 14.152344 C 14.820312 13.230469 15.667969 11.859375 15.921875 10.300781 C 16.273438 8.144531 15.40625 6.066406 13.828125 4.769531 Z M 12.007812 0.25 C 13.277344 0.25 14.3125 1.285156 14.3125 2.554688 C 14.3125 3.984375 12.457031 6.511719 12.007812 7.105469 C 11.554688 6.511719 9.699219 3.984375 9.699219 2.554688 C 9.699219 1.285156 10.734375 0.25 12.007812 0.25 Z M 7.871094 4.128906 C 7.871094 4.132812 7.867188 4.140625 7.867188 4.144531 C 7.820312 4.753906 8.164062 5.378906 8.703125 5.664062 C 8.742188 5.683594 8.785156 5.707031 8.828125 5.726562 C 8.898438 5.757812 8.964844 5.789062 9.023438 5.832031 C 9.273438 6 9.390625 6.351562 9.289062 6.636719 C 9.183594 6.921875 8.867188 7.117188 8.570312 7.085938 C 8.40625 7.070312 8.253906 7 8.09375 6.925781 C 8.027344 6.894531 7.964844 6.867188 7.898438 6.839844 C 7.703125 6.761719 7.332031 6.660156 7.058594 6.867188 C 6.855469 7.015625 6.757812 7.292969 6.792969 7.609375 C 6.808594 7.753906 6.847656 7.890625 6.886719 8.019531 C 6.914062 8.117188 6.9375 8.207031 6.957031 8.296875 C 6.976562 8.40625 6.996094 8.59375 6.929688 8.746094 C 6.824219 8.609375 6.660156 8.519531 6.476562 8.519531 L 6.03125 8.519531 L 6.03125 8.179688 C 6.03125 7.628906 5.816406 7.113281 5.429688 6.730469 C 5.347656 6.648438 5.261719 6.578125 5.171875 6.511719 C 5.792969 5.441406 6.746094 4.605469 7.871094 4.128906 Z M 2.183594 8.179688 C 2.183594 7.1875 2.992188 6.378906 3.980469 6.378906 C 4.464844 6.378906 4.914062 6.566406 5.253906 6.90625 C 5.59375 7.246094 5.78125 7.695312 5.78125 8.179688 L 5.78125 9.664062 C 5.78125 9.726562 5.726562 9.78125 5.660156 9.78125 C 5.59375 9.78125 5.539062 9.726562 5.539062 9.664062 L 5.539062 8.179688 C 5.539062 7.761719 5.375 7.371094 5.082031 7.078125 C 4.789062 6.78125 4.398438 6.621094 3.980469 6.621094 C 3.125 6.621094 2.425781 7.320312 2.425781 8.179688 L 2.425781 9.664062 C 2.425781 9.726562 2.371094 9.78125 2.304688 9.78125 C 2.238281 9.78125 2.183594 9.726562 2.183594 9.664062 Z M 4.484375 8.433594 C 4.554688 7.996094 4.679688 7.585938 4.839844 7.195312 C 4.863281 7.214844 4.886719 7.234375 4.90625 7.253906 C 5.152344 7.5 5.289062 7.828125 5.289062 8.179688 L 5.289062 8.519531 L 4.472656 8.519531 C 4.476562 8.492188 4.480469 8.460938 4.484375 8.433594 Z M 4.238281 8.390625 C 4.230469 8.433594 4.226562 8.476562 4.21875 8.519531 L 2.675781 8.519531 L 2.675781 8.179688 C 2.675781 7.457031 3.261719 6.871094 3.980469 6.871094 C 4.214844 6.871094 4.433594 6.929688 4.628906 7.042969 C 4.449219 7.472656 4.3125 7.921875 4.238281 8.390625 Z M 7.636719 15.640625 C 7.574219 15.710938 7.488281 15.75 7.394531 15.75 L 0.570312 15.75 C 0.476562 15.75 0.390625 15.710938 0.328125 15.640625 C 0.269531 15.570312 0.242188 15.476562 0.253906 15.382812 L 1.167969 9.042969 C 1.191406 8.886719 1.328125 8.769531 1.488281 8.769531 L 1.933594 8.769531 L 1.933594 9.664062 C 1.933594 9.867188 2.101562 10.03125 2.304688 10.03125 C 2.507812 10.03125 2.675781 9.867188 2.675781 9.664062 L 2.675781 8.769531 L 5.289062 8.769531 L 5.289062 9.664062 C 5.289062 9.867188 5.453125 10.03125 5.660156 10.03125 C 5.863281 10.03125 6.03125 9.867188 6.03125 9.664062 L 6.03125 8.769531 L 6.476562 8.769531 C 6.636719 8.769531 6.773438 8.886719 6.792969 9.042969 L 7.710938 15.386719 C 7.722656 15.476562 7.695312 15.570312 7.636719 15.640625 Z M 11.039062 14.34375 C 11.019531 14.550781 10.988281 14.753906 10.945312 14.949219 C 10.363281 15.039062 9.765625 15.039062 9.164062 14.941406 C 8.699219 14.867188 8.257812 14.734375 7.84375 14.554688 L 7.488281 12.089844 C 7.566406 12.0625 7.644531 12.027344 7.722656 11.992188 C 7.917969 11.894531 8.046875 11.84375 8.15625 11.898438 C 8.316406 11.980469 8.308594 12.265625 8.296875 12.382812 L 8.292969 12.40625 C 8.265625 12.640625 8.234375 12.933594 8.421875 13.136719 C 8.636719 13.375 8.992188 13.335938 9.234375 13.226562 C 9.324219 13.1875 9.410156 13.136719 9.488281 13.089844 C 9.613281 13.019531 9.730469 12.949219 9.859375 12.914062 C 10.171875 12.832031 10.5625 12.984375 10.78125 13.28125 C 10.980469 13.550781 11.070312 13.929688 11.039062 14.34375 Z M 13.804688 13.617188 C 13.679688 13.492188 13.566406 13.339844 13.457031 13.1875 C 13.28125 12.945312 13.128906 12.65625 13.015625 12.351562 C 13 12.3125 12.988281 12.273438 12.976562 12.230469 C 12.914062 12.039062 12.847656 11.839844 12.730469 11.65625 C 12.425781 11.179688 11.78125 10.972656 11.265625 11.179688 C 11.21875 11.199219 11.167969 11.21875 11.121094 11.242188 C 11.03125 11.28125 10.941406 11.320312 10.863281 11.316406 C 10.734375 11.3125 10.617188 11.214844 10.546875 11.136719 C 10.191406 10.746094 10.203125 10.074219 10.570312 9.703125 C 10.933594 9.332031 11.617188 9.3125 12.003906 9.660156 C 12.097656 9.738281 12.171875 9.835938 12.253906 9.9375 C 12.34375 10.054688 12.4375 10.171875 12.558594 10.273438 C 12.804688 10.488281 13.214844 10.59375 13.480469 10.359375 C 13.746094 10.113281 13.664062 9.691406 13.511719 9.402344 C 13.492188 9.363281 13.46875 9.320312 13.445312 9.277344 C 13.328125 9.070312 13.21875 8.875 13.238281 8.671875 C 13.25 8.554688 13.320312 8.441406 13.429688 8.355469 C 13.578125 8.242188 13.78125 8.195312 13.957031 8.226562 C 14.347656 8.296875 14.613281 8.660156 14.738281 8.871094 C 14.855469 9.066406 14.945312 9.285156 15.035156 9.5 C 15.089844 9.632812 15.144531 9.769531 15.210938 9.902344 C 15.339844 10.15625 15.480469 10.335938 15.640625 10.449219 C 15.394531 11.691406 14.753906 12.792969 13.804688 13.617188 Z M 15.6875 10.160156 C 15.597656 10.070312 15.515625 9.949219 15.433594 9.792969 C 15.375 9.667969 15.320312 9.53125 15.265625 9.402344 C 15.171875 9.183594 15.078125 8.953125 14.953125 8.742188 C 14.703125 8.316406 14.363281 8.042969 14 7.980469 C 13.753906 7.9375 13.484375 8 13.28125 8.15625 C 13.113281 8.285156 13.007812 8.460938 12.992188 8.648438 C 12.964844 8.929688 13.101562 9.179688 13.226562 9.398438 C 13.25 9.441406 13.269531 9.480469 13.292969 9.519531 C 13.410156 9.746094 13.460938 10.035156 13.3125 10.175781 C 13.164062 10.304688 12.890625 10.230469 12.71875 10.082031 C 12.621094 10 12.539062 9.894531 12.449219 9.785156 C 12.367188 9.675781 12.277344 9.5625 12.171875 9.472656 C 11.683594 9.03125 10.851562 9.058594 10.394531 9.527344 C 9.9375 9.992188 9.921875 10.820312 10.359375 11.304688 C 10.511719 11.46875 10.683594 11.5625 10.855469 11.566406 C 10.992188 11.566406 11.117188 11.515625 11.222656 11.46875 C 11.265625 11.449219 11.304688 11.433594 11.355469 11.414062 C 11.757812 11.25 12.28125 11.421875 12.519531 11.789062 C 12.621094 11.949219 12.675781 12.125 12.738281 12.308594 C 12.75 12.351562 12.765625 12.390625 12.78125 12.4375 C 12.902344 12.769531 13.0625 13.074219 13.253906 13.332031 C 13.363281 13.488281 13.480469 13.644531 13.613281 13.78125 C 13.539062 13.835938 13.464844 13.894531 13.390625 13.949219 C 12.726562 14.425781 11.984375 14.746094 11.207031 14.902344 C 11.242188 14.726562 11.273438 14.546875 11.285156 14.367188 C 11.324219 13.886719 11.21875 13.449219 10.980469 13.132812 C 10.699219 12.75 10.210938 12.5625 9.792969 12.675781 C 9.632812 12.71875 9.496094 12.796875 9.363281 12.875 C 9.285156 12.921875 9.210938 12.964844 9.132812 13 C 8.957031 13.078125 8.726562 13.097656 8.609375 12.96875 C 8.496094 12.847656 8.519531 12.636719 8.542969 12.433594 L 8.542969 12.410156 C 8.578125 12.046875 8.484375 11.785156 8.269531 11.675781 C 8.042969 11.558594 7.816406 11.667969 7.613281 11.765625 C 7.558594 11.792969 7.503906 11.816406 7.449219 11.835938 L 7.042969 9.027344 C 7.046875 9.023438 7.054688 9.019531 7.058594 9.015625 C 7.210938 8.832031 7.261719 8.5625 7.203125 8.246094 C 7.183594 8.148438 7.152344 8.046875 7.125 7.953125 C 7.089844 7.824219 7.054688 7.703125 7.039062 7.582031 C 7.019531 7.40625 7.054688 7.179688 7.207031 7.066406 C 7.390625 6.929688 7.6875 7.023438 7.804688 7.070312 C 7.867188 7.09375 7.925781 7.125 7.988281 7.152344 C 8.160156 7.234375 8.339844 7.316406 8.542969 7.335938 C 8.957031 7.378906 9.378906 7.117188 9.523438 6.722656 C 9.664062 6.328125 9.511719 5.855469 9.164062 5.621094 C 9.089844 5.574219 9.011719 5.535156 8.9375 5.5 C 8.898438 5.480469 8.859375 5.460938 8.820312 5.441406 C 8.367188 5.203125 8.078125 4.675781 8.117188 4.164062 C 8.121094 4.121094 8.128906 4.074219 8.136719 4.023438 C 8.628906 3.84375 9.152344 3.726562 9.691406 3.691406 C 10.296875 5.335938 11.828125 7.285156 11.910156 7.386719 C 11.933594 7.417969 11.96875 7.433594 12.007812 7.433594 C 12.042969 7.433594 12.082031 7.417969 12.105469 7.386719 C 12.164062 7.3125 13.019531 6.222656 13.703125 4.996094 C 15.167969 6.21875 15.980469 8.148438 15.6875 10.160156 Z M 15.6875 10.160156 "/>
</g>
</svg>
